<svg xmlns="http://www.w3.org/2000/svg" viewBox="0 0 98.3 39.93"><defs><style>.cls-1{fill:#ffb000;}</style></defs><title>Chittu</title><g id="Layer_1" data-name="Layer 1"><path class="cls-1" d="M16.71,15.69c1.51.61,2.86,1.23,4.06,1.86a12.18,12.18,0,0,1,3.09,2.25,9.09,9.09,0,0,1,2,3.18,12.62,12.62,0,0,1,.7,4.48,12.84,12.84,0,0,1-1,5.14,10.73,10.73,0,0,1-2.93,3.92A13.58,13.58,0,0,1,17.87,39a21.33,21.33,0,0,1-6.48.89,28.59,28.59,0,0,1-5.88-.54A36.15,36.15,0,0,1,0,37.73a29.69,29.69,0,0,1,.75-4Q1.29,31.61,2,29.4a22.23,22.23,0,0,0,8.6,2.15,9,9,0,0,0,4.27-.84,3,3,0,0,0,1.54-2.87,3.11,3.11,0,0,0-.33-1.48,3.23,3.23,0,0,0-.86-1.05,5.78,5.78,0,0,0-1.21-.72c-.44-.2-.9-.39-1.37-.57l-3-1.13a19.39,19.39,0,0,1-3.52-1.66,11.43,11.43,0,0,1-2.71-2.29,9.47,9.47,0,0,1-1.75-3,12,12,0,0,1-.62-4A12.5,12.5,0,0,1,2,6.83,10.53,10.53,0,0,1,4.76,3.09,11.57,11.57,0,0,1,9,.78,18.29,18.29,0,0,1,14.51,0,25.45,25.45,0,0,1,19.8.54,43.93,43.93,0,0,1,25.26,2.1a26.29,26.29,0,0,1-.78,3.78,24.65,24.65,0,0,1-1.42,3.9c-.94-.39-2-.8-3.28-1.24A14.94,14.94,0,0,0,15.1,7.9a7.93,7.93,0,0,0-1.64.16,4.88,4.88,0,0,0-1.39.51,2.74,2.74,0,0,0-1,1,2.89,2.89,0,0,0-.38,1.53,2.68,2.68,0,0,0,1,2.31,10.34,10.34,0,0,0,2.41,1.29Z"/><path class="cls-1" d="M40.84,39.23c-.93.15-1.77.25-2.52.33s-1.43.1-2,.1-1.29,0-2.05-.1-1.57-.18-2.47-.33V11.5a17.75,17.75,0,0,1,2.34-.37,22.36,22.36,0,0,1,4.43,0,15.89,15.89,0,0,1,2.31.37Z"/><path class="cls-1" d="M63.79,11.5a14,14,0,0,1,1.78-.21c.89-.08,1.81-.11,2.74-.11,1.18,0,2.28,0,3.3.11s1.73.14,2.13.21L63.2,39.18a14.6,14.6,0,0,1-2.28.35c-.77,0-1.52.08-2.23.08s-1.45,0-2.21-.08a10.07,10.07,0,0,1-2-.35L44.12,11.5c.4-.07,1.1-.14,2.13-.21s2.12-.11,3.3-.11c.93,0,1.86,0,2.8.11a14,14,0,0,1,1.82.21l4.89,16.66c.83-2.76,1.62-5.55,2.4-8.38S63,14.19,63.79,11.5Z"/><path class="cls-1" d="M74.54,30.2a7.81,7.81,0,0,1,1.13-4.35,8.45,8.45,0,0,1,2.9-2.74,12.21,12.21,0,0,1,3.93-1.42,22.6,22.6,0,0,1,4.19-.41H90a3,3,0,0,0-.54-1.61,3.17,3.17,0,0,0-1.24-1,5.73,5.73,0,0,0-1.66-.49,12.9,12.9,0,0,0-1.88-.13,18.71,18.71,0,0,0-3,.29,22,22,0,0,0-3.55.94c-.32-.6-.6-1.16-.83-1.66a7.35,7.35,0,0,1-.54-1.53,10.53,10.53,0,0,1-.27-1.62c0-.55-.08-1.19-.08-1.9a32.65,32.65,0,0,1,5.13-1.29,27.53,27.53,0,0,1,4.6-.43,17.64,17.64,0,0,1,5.05.67A10.16,10.16,0,0,1,95,13.6a9.18,9.18,0,0,1,2.45,3.57,14.17,14.17,0,0,1,.86,5.19V38.1c-1.37.4-3,.79-5,1.19a30.85,30.85,0,0,1-6.12.59,24.14,24.14,0,0,1-5.14-.51,11.41,11.41,0,0,1-4-1.64,7.85,7.85,0,0,1-2.61-3A10.08,10.08,0,0,1,74.54,30.2Zm12.69,3a12.89,12.89,0,0,0,1.39-.1c.61-.08,1.06-.15,1.35-.22V27H86.9a5.86,5.86,0,0,0-3.17.81A2.52,2.52,0,0,0,82.44,30a2.67,2.67,0,0,0,.49,1.7,3.12,3.12,0,0,0,1.21.94,6,6,0,0,0,1.55.43A12.39,12.39,0,0,0,87.23,33.21Z"/></g></svg>